<svg>
    <symbol id="heart" viewBox="0 0 24 24"  xmlns="http://www.w3.org/2000/svg">
        <path d="M2 9.1371C2 14 6.01943 16.5914 8.96173 18.9109C10 19.7294 11 20.5 12 20.5C13 20.5 14 19.7294 15.0383 18.9109C17.9806 16.5914 22 14 22 9.1371C22 4.27416 16.4998 0.825464 12 5.50063C7.50016 0.825464 2 4.27416 2 9.1371Z" />
    </symbol>
    <symbol id="light" viewBox="0 0 15 15" fill="none" xmlns="http://www.w3.org/2000/svg">
        <path d="M7.7066 0.00274765C7.50391 -0.0027381 7.31797 0.114737 7.23588 0.300147C7.15379 0.485558 7.19181 0.702186 7.33213 0.848565C8.36577 1.92686 9.00015 3.3888 9.00015 4.99996C9.00015 8.31366 6.31385 11 3.00015 11C2.5757 11 2.16207 10.956 1.76339 10.8725C1.56489 10.8309 1.36094 10.9133 1.2471 11.0812C1.13325 11.249 1.13207 11.469 1.2441 11.638C2.58602 13.663 4.88682 15 7.50012 15C11.6423 15 15.0001 11.6421 15.0001 7.49996C15.0001 3.42688 11.7534 0.112271 7.7066 0.00274765Z" fill="#000000"/>
    </symbol>
    <symbol id="dark" viewBox="0 0 16 16" fill="none" xmlns="http://www.w3.org/2000/svg">
        <path d="M7 3V0H9V3H7Z" fill="var(--sun)"/>
        <path d="M9 13V16H7V13H9Z" fill="var(--sun)"/>
        <path d="M11 8C11 9.65685 9.65685 11 8 11C6.34315 11 5 9.65685 5 8C5 6.34315 6.34315 5 8 5C9.65685 5 11 6.34315 11 8Z" fill="var(--sun)"/>
        <path d="M0 9H3V7H0V9Z" fill="var(--sun)"/>
        <path d="M16 7H13V9H16V7Z" fill="var(--sun)"/>
        <path d="M3.75735 5.17157L1.63603 3.05025L3.05025 1.63603L5.17157 3.75735L3.75735 5.17157Z" fill="var(--sun)"/>
        <path d="M12.2426 10.8284L14.364 12.9497L12.9497 14.364L10.8284 12.2426L12.2426 10.8284Z" fill="var(--sun)"/>
        <path d="M3.05025 14.364L5.17157 12.2426L3.75735 10.8284L1.63603 12.9498L3.05025 14.364Z" fill="var(--sun)"/>
        <path d="M12.9497 1.63604L10.8284 3.75736L12.2426 5.17158L14.364 3.05026L12.9497 1.63604Z" fill="var(--sun)"/>
    </symbol>
    <symbol id="burger" viewBox="0 0 24 24" xmlns="http://www.w3.org/2000/svg">
        <path d="M4 18L20 18" stroke="#000000" stroke-width="2" stroke-linecap="round"/>
        <path d="M4 12L20 12" stroke="#000000" stroke-width="2" stroke-linecap="round"/>
        <path d="M4 6L20 6" stroke="#000000" stroke-width="2" stroke-linecap="round"/>
    </symbol>
</svg>